<svg xmlns="http://www.w3.org/2000/svg" viewBox="0 0 320 320" role="img" aria-labelledby="title desc">
  <title id="title">AgentGuard VerifyPay mark</title>
  <desc id="desc">A shield containing two connected agents and a verification check.</desc>
  <defs>
    <linearGradient id="shield" x1="0" y1="0" x2="1" y2="1"><stop stop-color="#F0B90B"/><stop offset="1" stop-color="#FFD84D"/></linearGradient>
    <linearGradient id="accent" x1="0" y1="0" x2="1" y2="1"><stop stop-color="#22D3EE"/><stop offset="1" stop-color="#60A5FA"/></linearGradient>
    <filter id="glow" x="-40%" y="-40%" width="180%" height="180%"><feGaussianBlur stdDeviation="5" result="blur"/><feMerge><feMergeNode in="blur"/><feMergeNode in="SourceGraphic"/></feMerge></filter>
  </defs>
  <path d="M160 18 280 62v91c0 76-49 126-120 157C89 279 40 229 40 153V62Z" fill="#0B1728" stroke="url(#shield)" stroke-width="12" stroke-linejoin="round"/>
  <path d="M160 52 246 83v69c0 53-31 90-86 116-55-26-86-63-86-116V83Z" fill="#101F33" stroke="#284563" stroke-width="2"/>
  <path d="M106 149h45m18 0h45M160 114v35m0 0v56" fill="none" stroke="url(#accent)" stroke-width="8" stroke-linecap="round"/>
  <circle cx="102" cy="149" r="18" fill="#22D3EE" filter="url(#glow)"/><circle cx="218" cy="149" r="18" fill="#60A5FA" filter="url(#glow)"/><circle cx="160" cy="102" r="18" fill="#A78BFA" filter="url(#glow)"/>
  <circle cx="160" cy="210" r="26" fill="#123C2E" stroke="#34D399" stroke-width="5"/><path d="m147 210 9 9 19-22" fill="none" stroke="#6EE7B7" stroke-width="7" stroke-linecap="round" stroke-linejoin="round"/>
  <circle cx="160" cy="149" r="7" fill="#F0B90B"/>
</svg>
